<?xml version="1.0" encoding="UTF-8"?>
<svg preserveAspectRatio="xMidYMid slice" xmlns="http://www.w3.org/2000/svg" width="300px" height="57px" viewBox="0 0 300 56" fill="none">
  <g clip-path="url(#clip0)">
    <path d="M27.6837 0H12.1684L12.1387 0.053945L9.99743 3.9545H27.6837C40.7846 3.9545 51.4117 14.5783 51.4117 27.6837C51.4117 40.789 40.7879 51.4128 27.6837 51.4128C14.5795 51.4128 3.9545 40.7879 3.9545 27.6837C3.95342 25.2047 4.34164 22.7409 5.10495 20.3824H9.63523C6.42377 28.3184 8.77313 37.421 15.4241 42.8115C22.0751 48.202 31.467 48.6154 38.5659 43.8302C45.6648 39.0449 48.8048 30.1839 46.3031 21.9964C43.8013 13.8089 36.2448 8.21635 27.6837 8.21615H7.65908L5.48917 12.1695H27.6837C34.6557 12.171 40.7703 16.8238 42.6303 23.5432C44.4903 30.2626 41.6387 37.3974 35.6598 40.9838C29.6808 44.5702 22.0437 43.7269 16.9913 38.9225C11.9388 34.118 10.7126 26.533 13.9938 20.3813H19.1262C15.7004 24.4029 15.5347 30.2666 18.7279 34.4754C21.9211 38.6841 27.6128 40.1037 32.4085 37.8875C37.2042 35.6714 39.8116 30.4167 38.6757 25.2572C37.5398 20.0978 32.9667 16.424 27.6837 16.4268H3.15083L0.979816 20.3824C0.329962 22.7617 0.000449552 25.2172 0 27.6837C0 42.9721 12.3941 55.3673 27.6837 55.3673C42.9732 55.3673 55.3673 42.9721 55.3673 27.6837C55.3673 12.3952 42.9721 0 27.6837 0ZM27.6837 20.3824C31.7161 20.3824 34.985 23.6513 34.985 27.6837C34.985 31.7161 31.7161 34.985 27.6837 34.985C23.6513 34.985 20.3824 31.7161 20.3824 27.6837C20.3824 23.6513 23.6513 20.3824 27.6837 20.3824ZM67.5358 28.2683C67.5358 20.5772 72.6958 15.1739 80.4341 15.1739C85.2044 15.1739 89.0984 17.2657 91.1428 20.7721L86.6653 23.9361C85.2528 21.6958 83.1116 20.6257 80.5806 20.6257C76.3971 20.6257 73.6205 23.5982 73.6205 28.2683C73.6205 32.8921 76.3949 35.9097 80.5806 35.9097C83.1127 35.9097 85.2528 34.7901 86.6653 32.5508L91.1428 35.7149C89.0984 39.2686 85.2044 41.313 80.4341 41.313C72.6958 41.313 67.5358 35.9097 67.5358 28.2683ZM91.9839 28.2683C91.9839 21.0639 97.0954 15.1739 105.03 15.1739C113.012 15.1739 118.074 21.0639 118.074 28.2683C118.074 35.4242 113.01 41.313 105.03 41.313C97.1009 41.313 91.9839 35.4231 91.9839 28.2683ZM111.99 28.2683C111.99 23.7413 109.312 20.5772 105.03 20.5772C100.747 20.5772 98.0686 23.7413 98.0686 28.2683C98.0686 32.7457 100.746 35.9097 105.03 35.9097C109.313 35.9097 111.99 32.7457 111.99 28.2683ZM157.054 15.8532L149.457 40.6294H143.043L137.674 23.1545L132.258 40.6294H125.835L118.283 15.8532H124.175L129.306 33.7167L134.817 15.8532H140.519L146.031 33.7167L151.114 15.8532H157.054ZM240.497 15.8532L232.894 40.6294H226.48L221.11 23.1545L215.694 40.6294H209.284L201.73 15.8587H207.622L212.753 33.7222L218.259 15.8532H223.961L229.473 33.7167L234.557 15.8532H240.497ZM174.826 15.7585V21.3072C173.924 21.1578 173.013 21.0765 172.1 21.0639C167.768 21.0639 165.48 23.2547 165.48 28.4136V40.6338H159.545V15.8532H165.38V19.9927C166.597 17.1215 169.274 15.4172 172.681 15.4172C173.411 15.403 174.137 15.5186 174.826 15.7585ZM199.463 15.8532V38.1468C199.463 46.4708 194.839 51.0451 186.661 51.0451C182.426 51.0451 178.532 49.7802 176.195 47.5894L178.873 43.2573C180.964 44.9086 183.691 45.7398 186.32 45.7398C190.896 45.7398 193.622 43.1604 193.622 38.1435V36.0066C192.21 38.7325 189.193 40.3872 185.541 40.3872C180.284 40.3872 176.975 37.0778 176.975 31.0415V15.8532H182.913V29.5332C182.913 33.3303 184.471 34.985 187.585 34.985C191.188 34.985 193.573 32.7952 193.573 29.1919V15.8532H199.463ZM242.059 8.01908C242.059 5.8767 243.568 4.3189 245.856 4.3189C248.094 4.3189 249.599 5.8767 249.599 8.01908C249.599 10.1615 248.09 11.7182 245.856 11.7182C243.568 11.7182 242.059 10.1604 242.059 8.01908ZM242.887 15.8554H248.825V40.6316H242.887V15.8554ZM251.813 36.5912L255.025 32.8426C256.972 34.985 259.99 36.2499 263.155 36.2499C265.977 36.2499 267.535 35.1798 267.535 33.622C267.535 32.3075 266.561 31.4807 264.079 30.8961L260.039 29.9714C254.879 28.7549 252.689 26.3692 252.689 22.9618C252.689 18.3864 256.485 15.1739 262.911 15.1739C267.292 15.1739 270.942 16.6822 273.084 19.1174L269.92 22.9618C267.778 21.1123 265.344 20.236 262.764 20.236C259.989 20.236 258.626 21.2587 258.626 22.7681C258.626 23.9361 259.453 24.6661 262.082 25.2495L266.366 26.2723C271.573 27.4404 273.472 29.825 273.472 33.2323C273.472 38.149 269.675 41.313 263.105 41.313C258.189 41.313 254.052 39.4635 251.813 36.5912ZM299.845 30.0198H281.395C282.028 34.0117 284.655 36.153 288.696 36.153C291.47 36.153 293.806 35.1314 295.607 33.0374L299.161 36.5428C296.825 39.5604 293.076 41.313 288.501 41.313C280.615 41.313 275.358 36.153 275.358 28.3651C275.358 20.6741 280.422 15.1739 287.917 15.1739C295.121 15.1739 299.988 20.1875 299.988 27.7321C299.987 28.4969 299.939 29.2609 299.845 30.0198ZM281.395 25.9817H294.055C293.763 22.3299 291.523 20.335 287.971 20.335C284.317 20.3339 282.03 22.4268 281.395 25.9817Z" fill="#0a0d27"></path>
  </g>
  <defs>
    <clipPath id="clip0">
      <rect width="300" height="55.3761" fill="white"></rect>
    </clipPath>
  </defs>
</svg>
